Game.of.Thrones.S02E06.REPACK.HDTV.XviD-Atilla82

screenshots included in torrent --- no repeating scenes --- audio synced

language: English



Game of Thrones (2012)
 
http://www.imdb.com/title/tt0944947/

Seven noble families fight for control of the mythical land of Westeros.





General
Complete name : Game.of.Thrones.S02E06.REPACK.HDTV.XviD-Atilla82.avi
Format : AVI
Format/Info : Audio Video Interleave
File size : 345 MiB
Duration : 54mn 32s
Overall bit rate : 885 Kbps
Writing application : Lavf52.61.0
Writing library : VirtualDub build 29808/release

Video
ID : 0
Format : MPEG-4 Visual
Format profile : Advanced Simple@L5
Format settings, BVOP : No
Format settings, QPel : Yes
Format settings, GMC : No warppoints
Format settings, Matrix : Default (H.263)
Codec ID : XVID
Codec ID/Hint : XviD
Duration : 54mn 32s
Bit rate : 745 Kbps
Width : 680 pixels
Height : 380 pixels
Display aspect ratio : 16:9
Frame rate : 29.970 fps
Color space : YUV
Chroma subsampling : 4:2:0
Bit depth : 8 bits
Scan type : Progressive
Compression mode : Lossy
Bits/(Pixel*Frame) : 0.096
Stream size : 291 MiB (84%)
Writing library : XviD 64

Audio
ID : 1
Format : MPEG Audio
Format version : Version 1
Format profile : Layer 3
Codec ID : 55
Codec ID/Hint : MP3
Duration : 54mn 32s
Bit rate mode : Constant
Bit rate : 128 Kbps
Channel(s) : 2 channels
Sampling rate : 48.0 KHz
Compression mode : Lossy
Delay relative to video : 4ms
Stream size : 49.9 MiB (14%)
Alignment : Split accross interleaves
Interleave, duration : 33 ms (1.00 video frame)
Interleave, preload duration : 500 ms
Writing library : LAME┼₧┼₧

